# xmcd
#
# Track frame offsets: 
#        150
#        11737
#        26710
#        38315
#        50757
#        69245
#        83495
#        91257
#        102697
#        116422
#        128850
#        141452
#        155797
#        169852
#        184877
#        196082
#        210277
#        226195
#        238955
#        253397
#        266900
#        283077
#
# Disc length: 3944 seconds
#
# Revision: 1
# Processed by: cddbd v1.5.2PL0 Copyright (c) Steve Scherf et al.
# Submitted via: ExactAudioCopy v0.99pb5
#
DISCID=3f0f6616
DTITLE=Michael Ballew - I Love Texas
DYEAR=1992
DGENRE=Country
TTITLE0=The Music Is Sweet
TTITLE1=The Greatest Texas Song
TTITLE2=Glenda Pearl
TTITLE3=Ain't No Future
TTITLE4=I Love Texas
TTITLE5=Blue Water
TTITLE6=Country Music
TTITLE7=Rodeo Cool
TTITLE8=Hot Spot
TTITLE9=Lovin' Me
TTITLE10=Cheatin'
TTITLE11=Take It Slow
TTITLE12=My Family
TTITLE13=Your Daddy Don't Live In Heaven
TTITLE14=Pretending Fool
TTITLE15=Seminole County Jail
TTITLE16=Crazy Dreams
TTITLE17=Dark Side Of The Dancefloor
TTITLE18=As Precious As You Are
TTITLE19=Women Love, Love
TTITLE20=Out There
TTITLE21=Hazelwood Avenue
EXTD=YEAR: 1992 ID3G: 2
EXTT0=
EXTT1=
EXTT2=
EXTT3=
EXTT4=
EXTT5=
EXTT6=
EXTT7=
EXTT8=
EXTT9=
EXTT10=
EXTT11=
EXTT12=
EXTT13=
EXTT14=
EXTT15=
EXTT16=
EXTT17=
EXTT18=
EXTT19=
EXTT20=
EXTT21=
PLAYORDER=
